/* XPM */
static char * right_active_xpm[] = {
"2 4 3 1",
" 	c None",
".	c #DEDEDE",
"+      c #737373",
"..",
"..",
"..",
"++"};
